<svg width="1148" height="532" xmlns="http://www.w3.org/2000/svg" xmlns:xlink="http://www.w3.org/1999/xlink" xml:space="preserve" overflow="hidden"><g transform="translate(16 8)"><g><path d="M391.258 382.755 391.012 169.001 393.012 168.999 393.258 382.753ZM386.014 171.007 392 159 398.014 170.993Z" fill="#000000" fill-rule="nonzero" fill-opacity="1"/><path d="M222 33C222 22.5066 222.709 14 223.583 14L881.417 14C882.291 14 883 22.5066 883 33" stroke="#E97132" stroke-width="2" stroke-linecap="butt" stroke-linejoin="miter" stroke-miterlimit="8" stroke-opacity="1" fill="none" fill-rule="evenodd"/><path d="M895.5 42.6133C895.5 27.0867 908.087 14.5 923.613 14.5L1101.39 14.5C1116.91 14.5 1129.5 27.0867 1129.5 42.6133L1129.5 200.387C1129.5 215.913 1116.91 228.5 1101.39 228.5L923.613 228.5C908.087 228.5 895.5 215.913 895.5 200.387Z" stroke="#4EA72E" stroke-width="3" stroke-linecap="butt" stroke-linejoin="miter" stroke-miterlimit="8" stroke-opacity="1" fill="#FFFFFF" fill-rule="evenodd" fill-opacity="1"/><path d="M-1.5 252.834C-1.5 235.529 12.5287 221.5 29.834 221.5L155.166 221.5C172.471 221.5 186.5 235.529 186.5 252.834L186.5 421.166C186.5 438.471 172.471 452.5 155.166 452.5L29.834 452.5C12.5287 452.5-1.5 438.471-1.5 421.166Z" stroke="#C00000" stroke-width="3" stroke-linecap="butt" stroke-linejoin="miter" stroke-miterlimit="8" stroke-opacity="1" fill="#FFFFFF" fill-rule="evenodd" fill-opacity="1"/><path d="M0.5 44.5007C0.5 27.3795 14.3795 13.5 31.5007 13.5L157.499 13.5C174.621 13.5 188.5 27.3795 188.5 44.5007L188.5 168.499C188.5 185.621 174.621 199.5 157.499 199.5L31.5007 199.5C14.3795 199.5 0.5 185.621 0.5 168.499Z" stroke="#A02B93" stroke-width="3" stroke-linecap="butt" stroke-linejoin="miter" stroke-miterlimit="8" stroke-opacity="1" fill="#FFFFFF" fill-rule="evenodd" fill-opacity="1"/><rect x="377.5" y="104.5" width="150" height="55" stroke="#000000" stroke-width="3" stroke-linecap="butt" stroke-linejoin="miter" stroke-miterlimit="8" stroke-opacity="1" fill="#CAEEFB" fill-opacity="1"/><text fill="#000000" fill-opacity="1" font-family="Arial,Arial_MSFontService,Arial" font-style="normal" font-variant="normal" font-weight="400" font-stretch="normal" font-size="18" text-anchor="start" direction="ltr" writing-mode="lr-tb" unicode-bidi="normal" text-decoration="none" transform="translate(391.755 128)">Endothelial cell </text><text fill="#000000" fill-opacity="1" font-family="Arial,Arial_MSFontService,Arial" font-style="normal" font-variant="normal" font-weight="400" font-stretch="normal" font-size="18" text-anchor="start" direction="ltr" writing-mode="lr-tb" unicode-bidi="normal" text-decoration="none" transform="translate(409.755 150)">signaling ↓</text><rect x="31.5" y="35.5" width="126" height="34" stroke="#000000" stroke-width="3" stroke-linecap="butt" stroke-linejoin="miter" stroke-miterlimit="8" stroke-opacity="1" fill="#FFFFFF" fill-opacity="1"/><text fill="#000000" fill-opacity="1" font-family="Arial,Arial_MSFontService,Arial" font-style="normal" font-variant="normal" font-weight="400" font-stretch="normal" font-size="18" text-anchor="start" direction="ltr" writing-mode="lr-tb" unicode-bidi="normal" text-decoration="none" transform="translate(48.5051 59)">Hepatocyte</text><rect x="34" y="0" width="71" height="27" fill="#FFFFFF" fill-opacity="1"/><text fill="#A02B93" fill-opacity="1" font-family="Arial,Arial_MSFontService,Arial" font-style="normal" font-variant="normal" font-weight="400" font-stretch="normal" font-size="22" text-anchor="start" direction="ltr" writing-mode="lr-tb" unicode-bidi="normal" text-decoration="none" transform="translate(45.6637 22)">Liver</text><rect x="31.5" y="91.5" width="126" height="33" stroke="#000000" stroke-width="3" stroke-linecap="butt" stroke-linejoin="miter" stroke-miterlimit="8" stroke-opacity="1" fill="#FFFFFF" fill-opacity="1"/><text fill="#000000" fill-opacity="1" font-family="Arial,Arial_MSFontService,Arial" font-style="normal" font-variant="normal" font-weight="400" font-stretch="normal" font-size="18" text-anchor="start" direction="ltr" writing-mode="lr-tb" unicode-bidi="normal" text-decoration="none" transform="translate(73.0051 115)">apoE</text><rect x="31.5" y="146.5" width="126" height="33" stroke="#000000" stroke-width="3" stroke-linecap="butt" stroke-linejoin="miter" stroke-miterlimit="8" stroke-opacity="1" fill="#FFFFFF" fill-opacity="1"/><text fill="#000000" fill-opacity="1" font-family="Arial,Arial_MSFontService,Arial" font-style="normal" font-variant="normal" font-weight="400" font-stretch="normal" font-size="18" text-anchor="start" direction="ltr" writing-mode="lr-tb" unicode-bidi="normal" text-decoration="none" transform="translate(49.5051 170)">Lipoprotein</text><path d="M95 69 95.0001 80.8557 93.0001 80.8558 93 69ZM100 78.8557 94.0002 90.8558 88.0001 78.8558Z" fill="#000000" fill-rule="nonzero" fill-opacity="1"/><path d="M95 124 95.0001 135.856 93.0001 135.856 93 124ZM100 133.856 94.0002 145.856 88.0001 133.856Z" fill="#000000" fill-rule="nonzero" fill-opacity="1"/><rect x="34" y="209" width="71" height="27" fill="#FFFFFF" fill-opacity="1"/><text fill="#C00000" fill-opacity="1" font-family="Arial,Arial_MSFontService,Arial" font-style="normal" font-variant="normal" font-weight="400" font-stretch="normal" font-size="22" text-anchor="start" direction="ltr" writing-mode="lr-tb" unicode-bidi="normal" text-decoration="none" transform="translate(41.2887 231)">Blood</text><rect x="9.5" y="248.5" width="167" height="54" stroke="#000000" stroke-width="3" stroke-linecap="butt" stroke-linejoin="miter" stroke-miterlimit="8" stroke-opacity="1" fill="#FFFFFF" fill-opacity="1"/><text fill="#000000" fill-opacity="1" font-family="Arial,Arial_MSFontService,Arial" font-style="normal" font-variant="normal" font-weight="400" font-stretch="normal" font-size="18" text-anchor="start" direction="ltr" writing-mode="lr-tb" unicode-bidi="normal" text-decoration="none" transform="translate(27.2057 271)">apoE</text><text fill="#000000" fill-opacity="1" font-family="Arial,Arial_MSFontService,Arial" font-style="normal" font-variant="normal" font-weight="400" font-stretch="normal" font-size="18" text-anchor="start" direction="ltr" writing-mode="lr-tb" unicode-bidi="normal" text-decoration="none" transform="translate(69.2057 271)">-</text><text fill="#000000" fill-opacity="1" font-family="Arial,Arial_MSFontService,Arial" font-style="normal" font-variant="normal" font-weight="400" font-stretch="normal" font-size="18" text-anchor="start" direction="ltr" writing-mode="lr-tb" unicode-bidi="normal" text-decoration="none" transform="translate(75.2057 271)">containing </text><text fill="#000000" fill-opacity="1" font-family="Arial,Arial_MSFontService,Arial" font-style="normal" font-variant="normal" font-weight="400" font-stretch="normal" font-size="18" text-anchor="start" direction="ltr" writing-mode="lr-tb" unicode-bidi="normal" text-decoration="none" transform="translate(74.2057 293)">HDL</text><rect x="7.5" y="314.5" width="167" height="55" stroke="#000000" stroke-width="3" stroke-linecap="butt" stroke-linejoin="miter" stroke-miterlimit="8" stroke-opacity="1" fill="#FFFFFF" fill-opacity="1"/><text fill="#000000" fill-opacity="1" font-family="Arial,Arial_MSFontService,Arial" font-style="normal" font-variant="normal" font-weight="400" font-stretch="normal" font-size="18" text-anchor="start" direction="ltr" writing-mode="lr-tb" unicode-bidi="normal" text-decoration="none" transform="translate(25.7757 338)">apoE</text><text fill="#000000" fill-opacity="1" font-family="Arial,Arial_MSFontService,Arial" font-style="normal" font-variant="normal" font-weight="400" font-stretch="normal" font-size="18" text-anchor="start" direction="ltr" writing-mode="lr-tb" unicode-bidi="normal" text-decoration="none" transform="translate(67.7757 338)">-</text><text fill="#000000" fill-opacity="1" font-family="Arial,Arial_MSFontService,Arial" font-style="normal" font-variant="normal" font-weight="400" font-stretch="normal" font-size="18" text-anchor="start" direction="ltr" writing-mode="lr-tb" unicode-bidi="normal" text-decoration="none" transform="translate(73.7757 338)">containing </text><text fill="#000000" fill-opacity="1" font-family="Arial,Arial_MSFontService,Arial" font-style="normal" font-variant="normal" font-weight="400" font-stretch="normal" font-size="18" text-anchor="start" direction="ltr" writing-mode="lr-tb" unicode-bidi="normal" text-decoration="none" transform="translate(61.2757 360)">VLDL ↑</text><rect x="23.5" y="394.5" width="138" height="34" stroke="#000000" stroke-width="3" stroke-linecap="butt" stroke-linejoin="miter" stroke-miterlimit="8" stroke-opacity="1" fill="#FFFFFF" fill-opacity="1"/><text fill="#000000" fill-opacity="1" font-family="Arial,Arial_MSFontService,Arial" font-style="normal" font-variant="normal" font-weight="400" font-stretch="normal" font-size="18" text-anchor="start" direction="ltr" writing-mode="lr-tb" unicode-bidi="normal" text-decoration="none" transform="translate(41.7055 418)">VLDL level ↑</text><path d="M0 0 44.2925 0 44.2925 178.83 24.0017 178.83" stroke="#000000" stroke-width="2" stroke-linecap="butt" stroke-linejoin="miter" stroke-miterlimit="8" stroke-opacity="1" fill="none" fill-rule="evenodd" transform="matrix(-1 1.22465e-16 1.22465e-16 1 31.0017 163)"/><rect x="250.5" y="36.5" width="97" height="33" stroke="#000000" stroke-width="3" stroke-linecap="butt" stroke-linejoin="miter" stroke-miterlimit="8" stroke-opacity="1" fill="#FFFFFF" fill-opacity="1"/><text fill="#000000" fill-opacity="1" font-family="Arial,Arial_MSFontService,Arial" font-style="normal" font-variant="normal" font-weight="400" font-stretch="normal" font-size="18" text-anchor="start" direction="ltr" writing-mode="lr-tb" unicode-bidi="normal" text-decoration="none" transform="translate(272.092 60)">SR</text><text fill="#000000" fill-opacity="1" font-family="Arial,Arial_MSFontService,Arial" font-style="normal" font-variant="normal" font-weight="400" font-stretch="normal" font-size="18" text-anchor="start" direction="ltr" writing-mode="lr-tb" unicode-bidi="normal" text-decoration="none" transform="translate(297.092 60)">-</text><text fill="#000000" fill-opacity="1" font-family="Arial,Arial_MSFontService,Arial" font-style="normal" font-variant="normal" font-weight="400" font-stretch="normal" font-size="18" text-anchor="start" direction="ltr" writing-mode="lr-tb" unicode-bidi="normal" text-decoration="none" transform="translate(303.092 60)">B1</text><rect x="250.5" y="81.5" width="97" height="34" stroke="#000000" stroke-width="3" stroke-linecap="butt" stroke-linejoin="miter" stroke-miterlimit="8" stroke-opacity="1" fill="#FFFFFF" fill-opacity="1"/><text fill="#000000" fill-opacity="1" font-family="Arial,Arial_MSFontService,Arial" font-style="normal" font-variant="normal" font-weight="400" font-stretch="normal" font-size="18" text-anchor="start" direction="ltr" writing-mode="lr-tb" unicode-bidi="normal" text-decoration="none" transform="translate(269.592 105)">VLDLR</text><rect x="250.5" y="127.5" width="97" height="33" stroke="#000000" stroke-width="3" stroke-linecap="butt" stroke-linejoin="miter" stroke-miterlimit="8" stroke-opacity="1" fill="#FBE3D6" fill-opacity="1"/><text fill="#000000" fill-opacity="1" font-family="Arial,Arial_MSFontService,Arial" font-style="normal" font-variant="normal" font-weight="400" font-stretch="normal" font-size="18" text-anchor="start" direction="ltr" writing-mode="lr-tb" unicode-bidi="normal" text-decoration="none" transform="translate(268.592 151)">LDLR ↓</text><rect x="250.5" y="189.5" width="97" height="33" stroke="#000000" stroke-width="3" stroke-linecap="butt" stroke-linejoin="miter" stroke-miterlimit="8" stroke-opacity="1" fill="#FBE3D6" fill-opacity="1"/><text fill="#000000" fill-opacity="1" font-family="Arial,Arial_MSFontService,Arial" font-style="normal" font-variant="normal" font-weight="400" font-stretch="normal" font-size="18" text-anchor="start" direction="ltr" writing-mode="lr-tb" unicode-bidi="normal" text-decoration="none" transform="translate(269.092 213)">LRP1 ↓</text><path d="M0-1 23.4931-1 23.4931 222.175 22.4931 221.175 64.6583 221.175 64.6583 223.175 21.4931 223.175 21.4931 0 22.4931 1 0 1ZM62.6583 216.175 74.6583 222.175 62.6583 228.175Z" fill="#000000" fill-rule="nonzero" fill-opacity="1" transform="matrix(1 0 0 -1 176 275.175)"/><path d="M0-1 33.8078-1 33.8078 243.387 32.8078 242.387 66.0883 242.387 66.0883 244.387 31.8078 244.387 31.8078 0 32.8078 1 0 1ZM64.0883 237.387 76.0883 243.387 64.0883 249.387Z" fill="#000000" fill-rule="nonzero" fill-opacity="1" transform="matrix(1 0 0 -1 174 341.387)"/><path d="M298.917 160 298.917 173.913 226 173.913 226 377.435" stroke="#000000" stroke-width="2" stroke-linecap="butt" stroke-linejoin="miter" stroke-miterlimit="8" stroke-opacity="1" fill="none" fill-rule="evenodd"/><path d="M0 0 21.4874 0.00015748" stroke="#000000" stroke-width="2" stroke-linecap="butt" stroke-linejoin="miter" stroke-miterlimit="8" stroke-opacity="1" fill="none" fill-rule="evenodd" transform="matrix(-1 0 0 1 8.4874 275)"/><path d="M0.36853-0.929616 21.6228 7.49626 20.8857 9.35549-0.36853 0.929616ZM21.6062 2.11112 30.5504 12.1112 17.1838 13.2665Z" fill="#000000" fill-rule="nonzero" fill-opacity="1" transform="matrix(1 0 0 -1 347 143.111)"/><path d="M0.845764-0.533558 26.0606 39.4354 24.3691 40.5025-0.845764 0.533558ZM29.2223 35.0761 30.5504 48.4266 19.0731 41.4788Z" fill="#000000" fill-rule="nonzero" fill-opacity="1" transform="matrix(1 0 0 -1 347 205.427)"/><rect x="546.5" y="35.5" width="150" height="55" stroke="#000000" stroke-width="3" stroke-linecap="butt" stroke-linejoin="miter" stroke-miterlimit="8" stroke-opacity="1" fill="#FFFFFF" fill-opacity="1"/><text fill="#000000" fill-opacity="1" font-family="Arial,Arial_MSFontService,Arial" font-style="normal" font-variant="normal" font-weight="400" font-stretch="normal" font-size="18" text-anchor="start" direction="ltr" writing-mode="lr-tb" unicode-bidi="normal" text-decoration="none" transform="translate(585.957 59)">Vascular </text><text fill="#000000" fill-opacity="1" font-family="Arial,Arial_MSFontService,Arial" font-style="normal" font-variant="normal" font-weight="400" font-stretch="normal" font-size="18" text-anchor="start" direction="ltr" writing-mode="lr-tb" unicode-bidi="normal" text-decoration="none" transform="translate(569.457 81)">remodeling ↓</text><rect x="546.5" y="104.5" width="150" height="55" stroke="#000000" stroke-width="3" stroke-linecap="butt" stroke-linejoin="miter" stroke-miterlimit="8" stroke-opacity="1" fill="#FFFFFF" fill-opacity="1"/><text fill="#000000" fill-opacity="1" font-family="Arial,Arial_MSFontService,Arial" font-style="normal" font-variant="normal" font-weight="400" font-stretch="normal" font-size="18" text-anchor="start" direction="ltr" writing-mode="lr-tb" unicode-bidi="normal" text-decoration="none" transform="translate(565.957 128)">Vascular tone </text><text fill="#000000" fill-opacity="1" font-family="Arial,Arial_MSFontService,Arial" font-style="normal" font-variant="normal" font-weight="400" font-stretch="normal" font-size="18" text-anchor="start" direction="ltr" writing-mode="lr-tb" unicode-bidi="normal" text-decoration="none" transform="translate(586.957 150)">control ↓</text><rect x="546.5" y="174.5" width="150" height="55" stroke="#000000" stroke-width="3" stroke-linecap="butt" stroke-linejoin="miter" stroke-miterlimit="8" stroke-opacity="1" fill="#FFFFFF" fill-opacity="1"/><text fill="#000000" fill-opacity="1" font-family="Arial,Arial_MSFontService,Arial" font-style="normal" font-variant="normal" font-weight="400" font-stretch="normal" font-size="18" text-anchor="start" direction="ltr" writing-mode="lr-tb" unicode-bidi="normal" text-decoration="none" transform="translate(565.957 198)">Capillary tone </text><text fill="#000000" fill-opacity="1" font-family="Arial,Arial_MSFontService,Arial" font-style="normal" font-variant="normal" font-weight="400" font-stretch="normal" font-size="18" text-anchor="start" direction="ltr" writing-mode="lr-tb" unicode-bidi="normal" text-decoration="none" transform="translate(586.957 220)">control ↓</text><path d="M451 103.349 451 61 535.789 61 535.789 63 452 63 453 62 453 103.349ZM533.789 56 545.789 62 533.789 68Z" fill="#000000" fill-rule="nonzero" fill-opacity="1"/><path d="M0-1 43.4717-1 43.4717 83.7891 41.4717 83.7891 41.4717 0 42.4717 1 0 1ZM48.4717 81.7891 42.4717 93.7891 36.4717 81.7891Z" fill="#000000" fill-rule="nonzero" fill-opacity="1" transform="matrix(1.83697e-16 1 1 -1.83697e-16 452 159)"/><path d="M527.03 130 535.911 130.265 535.852 132.264 526.97 132ZM534.061 125.207 545.877 131.561 533.704 137.202Z" fill="#000000" fill-rule="nonzero" fill-opacity="1"/><rect x="735.5" y="35.5" width="136" height="55" stroke="#000000" stroke-width="3" stroke-linecap="butt" stroke-linejoin="miter" stroke-miterlimit="8" stroke-opacity="1" fill="#FFFFFF" fill-opacity="1"/><text fill="#000000" fill-opacity="1" font-family="Arial,Arial_MSFontService,Arial" font-style="normal" font-variant="normal" font-weight="400" font-stretch="normal" font-size="18" text-anchor="start" direction="ltr" writing-mode="lr-tb" unicode-bidi="normal" text-decoration="none" transform="translate(765.897 59)">Topology </text><text fill="#000000" fill-opacity="1" font-family="Arial,Arial_MSFontService,Arial" font-style="normal" font-variant="normal" font-weight="400" font-stretch="normal" font-size="18" text-anchor="start" direction="ltr" writing-mode="lr-tb" unicode-bidi="normal" text-decoration="none" transform="translate(751.897 81)">robustness ↓</text><rect x="736.5" y="104.5" width="123" height="55" stroke="#000000" stroke-width="3" stroke-linecap="butt" stroke-linejoin="miter" stroke-miterlimit="8" stroke-opacity="1" fill="#FFFFFF" fill-opacity="1"/><text fill="#000000" fill-opacity="1" font-family="Arial,Arial_MSFontService,Arial" font-style="normal" font-variant="normal" font-weight="400" font-stretch="normal" font-size="18" text-anchor="start" direction="ltr" writing-mode="lr-tb" unicode-bidi="normal" text-decoration="none" transform="translate(772.489 139)">CBF ↓</text><rect x="736.5" y="174.5" width="123" height="55" stroke="#000000" stroke-width="3" stroke-linecap="butt" stroke-linejoin="miter" stroke-miterlimit="8" stroke-opacity="1" fill="#FFFFFF" fill-opacity="1"/><text fill="#000000" fill-opacity="1" font-family="Arial,Arial_MSFontService,Arial" font-style="normal" font-variant="normal" font-weight="400" font-stretch="normal" font-size="18" text-anchor="start" direction="ltr" writing-mode="lr-tb" unicode-bidi="normal" text-decoration="none" transform="translate(762.489 198)">Vascular </text><text fill="#000000" fill-opacity="1" font-family="Arial,Arial_MSFontService,Arial" font-style="normal" font-variant="normal" font-weight="400" font-stretch="normal" font-size="18" text-anchor="start" direction="ltr" writing-mode="lr-tb" unicode-bidi="normal" text-decoration="none" transform="translate(754.989 220)">reactivity ↓</text><path d="M696 61 724.926 61.0001 724.926 63.0001 696 63ZM722.926 56.0001 734.926 62.0002 722.926 68.0001Z" fill="#000000" fill-rule="nonzero" fill-opacity="1"/><path d="M696 131 725.71 131 725.71 133 696 133ZM723.71 126 735.71 132 723.71 138Z" fill="#000000" fill-rule="nonzero" fill-opacity="1"/><path d="M696 200 725.71 200 725.71 202 696 202ZM723.71 195 735.71 201 723.71 207Z" fill="#000000" fill-rule="nonzero" fill-opacity="1"/><path d="M0.867889-0.496758 35.6102 60.2018 33.8744 61.1953-0.867889 0.496758ZM38.9562 55.9823 39.7099 69.3775 28.5415 61.9434Z" fill="#000000" fill-rule="nonzero" fill-opacity="1" transform="matrix(1 0 0 -1 696 201.377)"/><path d="M696.868 131.503 731.61 192.202 729.874 193.195 695.132 132.497ZM734.956 187.982 735.71 201.377 724.542 193.943Z" fill="#000000" fill-rule="nonzero" fill-opacity="1"/><rect x="318.5" y="382.5" width="150" height="55" stroke="#000000" stroke-width="3" stroke-linecap="butt" stroke-linejoin="miter" stroke-miterlimit="8" stroke-opacity="1" fill="#FFFFFF" fill-opacity="1"/><text fill="#000000" fill-opacity="1" font-family="Arial,Arial_MSFontService,Arial" font-style="normal" font-variant="normal" font-weight="400" font-stretch="normal" font-size="18" text-anchor="start" direction="ltr" writing-mode="lr-tb" unicode-bidi="normal" text-decoration="none" transform="translate(358.608 406)">OxVLDL</text><text fill="#000000" fill-opacity="1" font-family="Arial,Arial_MSFontService,Arial" font-style="normal" font-variant="normal" font-weight="400" font-stretch="normal" font-size="18" text-anchor="start" direction="ltr" writing-mode="lr-tb" unicode-bidi="normal" text-decoration="none" transform="translate(332.608 428)">accumulation ↑</text><rect x="486.5" y="314.5" width="150" height="55" stroke="#000000" stroke-width="3" stroke-linecap="butt" stroke-linejoin="miter" stroke-miterlimit="8" stroke-opacity="1" fill="#FFFFFF" fill-opacity="1"/><text fill="#000000" fill-opacity="1" font-family="Arial,Arial_MSFontService,Arial" font-style="normal" font-variant="normal" font-weight="400" font-stretch="normal" font-size="18" text-anchor="start" direction="ltr" writing-mode="lr-tb" unicode-bidi="normal" text-decoration="none" transform="translate(523.809 338)">Oxidative </text><text fill="#000000" fill-opacity="1" font-family="Arial,Arial_MSFontService,Arial" font-style="normal" font-variant="normal" font-weight="400" font-stretch="normal" font-size="18" text-anchor="start" direction="ltr" writing-mode="lr-tb" unicode-bidi="normal" text-decoration="none" transform="translate(530.309 360)">stress ↑</text><rect x="486.5" y="383.5" width="150" height="55" stroke="#000000" stroke-width="3" stroke-linecap="butt" stroke-linejoin="miter" stroke-miterlimit="8" stroke-opacity="1" fill="#FFFFFF" fill-opacity="1"/><text fill="#000000" fill-opacity="1" font-family="Arial,Arial_MSFontService,Arial" font-style="normal" font-variant="normal" font-weight="400" font-stretch="normal" font-size="18" text-anchor="start" direction="ltr" writing-mode="lr-tb" unicode-bidi="normal" text-decoration="none" transform="translate(508.309 407)">Immune cells </text><text fill="#000000" fill-opacity="1" font-family="Arial,Arial_MSFontService,Arial" font-style="normal" font-variant="normal" font-weight="400" font-stretch="normal" font-size="18" text-anchor="start" direction="ltr" writing-mode="lr-tb" unicode-bidi="normal" text-decoration="none" transform="translate(503.809 429)">into foam cells</text><rect x="486.5" y="452.5" width="150" height="55" stroke="#000000" stroke-width="3" stroke-linecap="butt" stroke-linejoin="miter" stroke-miterlimit="8" stroke-opacity="1" fill="#FFFFFF" fill-opacity="1"/><text fill="#000000" fill-opacity="1" font-family="Arial,Arial_MSFontService,Arial" font-style="normal" font-variant="normal" font-weight="400" font-stretch="normal" font-size="18" text-anchor="start" direction="ltr" writing-mode="lr-tb" unicode-bidi="normal" text-decoration="none" transform="translate(501.809 476)">Atherosclerotic </text><text fill="#000000" fill-opacity="1" font-family="Arial,Arial_MSFontService,Arial" font-style="normal" font-variant="normal" font-weight="400" font-stretch="normal" font-size="18" text-anchor="start" direction="ltr" writing-mode="lr-tb" unicode-bidi="normal" text-decoration="none" transform="translate(529.809 498)">plaques</text><path d="M392 382.349 392 340 476.789 340 476.789 342 393 342 394 341 394 382.349ZM474.789 335 486.789 341 474.789 347Z" fill="#000000" fill-rule="nonzero" fill-opacity="1"/><path d="M0-1 43.4717-1 43.4717 83.7891 41.4717 83.7891 41.4717 0 42.4717 1 0 1ZM48.4717 81.7891 42.4717 93.7891 36.4717 81.7891Z" fill="#000000" fill-rule="nonzero" fill-opacity="1" transform="matrix(1.83697e-16 1 1 -1.83697e-16 393 437)"/><path d="M468.03 409 476.911 409.265 476.852 411.264 467.97 411ZM475.061 404.207 486.877 410.561 474.704 416.202Z" fill="#000000" fill-rule="nonzero" fill-opacity="1"/><rect x="654.5" y="324.5" width="96" height="34" stroke="#000000" stroke-width="3" stroke-linecap="butt" stroke-linejoin="miter" stroke-miterlimit="8" stroke-opacity="1" fill="#FFFFFF" fill-opacity="1"/><text fill="#000000" fill-opacity="1" font-family="Arial,Arial_MSFontService,Arial" font-style="normal" font-variant="normal" font-weight="400" font-stretch="normal" font-size="18" text-anchor="start" direction="ltr" writing-mode="lr-tb" unicode-bidi="normal" text-decoration="none" transform="translate(673.213 348)">CypA</text><text fill="#000000" fill-opacity="1" font-family="Arial,Arial_MSFontService,Arial" font-style="normal" font-variant="normal" font-weight="400" font-stretch="normal" font-size="18" text-anchor="start" direction="ltr" writing-mode="lr-tb" unicode-bidi="normal" text-decoration="none" transform="translate(722.213 348)">↑</text><rect x="594.5" y="253.5" width="83" height="34" stroke="#000000" stroke-width="3" stroke-linecap="butt" stroke-linejoin="miter" stroke-miterlimit="8" stroke-opacity="1" fill="#FFFFFF" fill-opacity="1"/><text fill="#000000" fill-opacity="1" font-family="Arial,Arial_MSFontService,Arial" font-style="normal" font-variant="normal" font-weight="400" font-stretch="normal" font-size="18" text-anchor="start" direction="ltr" writing-mode="lr-tb" unicode-bidi="normal" text-decoration="none" transform="translate(608.914 277)">ROS ↑</text><path d="M667 297 667 316.077 665 316.077 665 297ZM660 299 666 287 672 299ZM672 314.077 666 326.077 660 314.077Z" fill="#000000" fill-rule="nonzero" fill-opacity="1"/><path d="M636 340 643.791 340 643.791 342 636 342ZM641.791 335 653.791 341 641.791 347Z" fill="#000000" fill-rule="nonzero" fill-opacity="1"/><rect x="768.5" y="324.5" width="96" height="34" stroke="#000000" stroke-width="3" stroke-linecap="butt" stroke-linejoin="miter" stroke-miterlimit="8" stroke-opacity="1" fill="#FFFFFF" fill-opacity="1"/><text fill="#000000" fill-opacity="1" font-family="Arial,Arial_MSFontService,Arial" font-style="normal" font-variant="normal" font-weight="400" font-stretch="normal" font-size="18" text-anchor="start" direction="ltr" writing-mode="lr-tb" unicode-bidi="normal" text-decoration="none" transform="translate(782.916 348)">MMP9 ↑</text><path d="M9.10191e-06-1 7.3019-0.999934 7.30188 1.00007-9.10191e-06 1ZM5.30194-5.99995 17.3019 0.00015748 5.30184 6.00005Z" fill="#000000" fill-rule="nonzero" fill-opacity="1" transform="matrix(1 0 0 -1 750 341)"/><rect x="881.5" y="314.5" width="200" height="55" stroke="#000000" stroke-width="3" stroke-linecap="butt" stroke-linejoin="miter" stroke-miterlimit="8" stroke-opacity="1" fill="#FFFFFF" fill-opacity="1"/><text fill="#000000" fill-opacity="1" font-family="Arial,Arial_MSFontService,Arial" font-style="normal" font-variant="normal" font-weight="400" font-stretch="normal" font-size="18" text-anchor="start" direction="ltr" writing-mode="lr-tb" unicode-bidi="normal" text-decoration="none" transform="translate(899.626 338)">ECM &amp; tight junction </text><text fill="#000000" fill-opacity="1" font-family="Arial,Arial_MSFontService,Arial" font-style="normal" font-variant="normal" font-weight="400" font-stretch="normal" font-size="18" text-anchor="start" direction="ltr" writing-mode="lr-tb" unicode-bidi="normal" text-decoration="none" transform="translate(933.626 360)">degradation</text><path d="M864 340 871.302 340 871.302 342 864 342ZM869.302 335 881.302 341 869.302 347Z" fill="#000000" fill-rule="nonzero" fill-opacity="1"/><rect x="942.5" y="261.5" width="156" height="33" stroke="#000000" stroke-width="3" stroke-linecap="butt" stroke-linejoin="miter" stroke-miterlimit="8" stroke-opacity="1" fill="#FFFFFF" fill-opacity="1"/><text fill="#000000" fill-opacity="1" font-family="Arial,Arial_MSFontService,Arial" font-style="normal" font-variant="normal" font-weight="400" font-stretch="normal" font-size="18" text-anchor="start" direction="ltr" writing-mode="lr-tb" unicode-bidi="normal" text-decoration="none" transform="translate(961.042 285)">BBB integrity ↓</text><rect x="712.5" y="261.5" width="207" height="33" stroke="#000000" stroke-width="3" stroke-linecap="butt" stroke-linejoin="miter" stroke-miterlimit="8" stroke-opacity="1" fill="#FFFFFF" fill-opacity="1"/><text fill="#000000" fill-opacity="1" font-family="Arial,Arial_MSFontService,Arial" font-style="normal" font-variant="normal" font-weight="400" font-stretch="normal" font-size="18" text-anchor="start" direction="ltr" writing-mode="lr-tb" unicode-bidi="normal" text-decoration="none" transform="translate(733.399 285)">Pericyte detachment</text><rect x="432.5" y="242.5" width="143" height="57" stroke="#000000" stroke-width="3" stroke-linecap="butt" stroke-linejoin="miter" stroke-miterlimit="8" stroke-opacity="1" fill="#FFFFFF" fill-opacity="1"/><text fill="#000000" fill-opacity="1" font-family="Arial,Arial_MSFontService,Arial" font-style="normal" font-variant="normal" font-weight="400" font-stretch="normal" font-size="18" text-anchor="start" direction="ltr" writing-mode="lr-tb" unicode-bidi="normal" text-decoration="none" transform="translate(450.272 267)">Mitochondrial </text><text fill="#000000" fill-opacity="1" font-family="Arial,Arial_MSFontService,Arial" font-style="normal" font-variant="normal" font-weight="400" font-stretch="normal" font-size="18" text-anchor="start" direction="ltr" writing-mode="lr-tb" unicode-bidi="normal" text-decoration="none" transform="translate(458.272 289)">dysfunction</text><path d="M0.0206946-0.999786 8.71591-0.819803 8.67452 1.17977-0.0206946 0.999786ZM6.81981-5.86012 18.6931 0.386929 6.57147 6.13731Z" fill="#000000" fill-rule="nonzero" fill-opacity="1" transform="matrix(-1 0 0 1 593.693 270)"/><path d="M919.001 277 932.694 277.013 932.692 279.013 918.999 279ZM930.699 272.011 942.693 278.023 930.687 284.011Z" fill="#000000" fill-rule="nonzero" fill-opacity="1"/><rect x="666.5" y="384.5" width="150" height="54" stroke="#000000" stroke-width="3" stroke-linecap="butt" stroke-linejoin="miter" stroke-miterlimit="8" stroke-opacity="1" fill="#FFFFFF" fill-opacity="1"/><text fill="#000000" fill-opacity="1" font-family="Arial,Arial_MSFontService,Arial" font-style="normal" font-variant="normal" font-weight="400" font-stretch="normal" font-size="18" text-anchor="start" direction="ltr" writing-mode="lr-tb" unicode-bidi="normal" text-decoration="none" transform="translate(706.004 407)">Vascular </text><text fill="#000000" fill-opacity="1" font-family="Arial,Arial_MSFontService,Arial" font-style="normal" font-variant="normal" font-weight="400" font-stretch="normal" font-size="18" text-anchor="start" direction="ltr" writing-mode="lr-tb" unicode-bidi="normal" text-decoration="none" transform="translate(683.004 429)">inflammation ↑</text><path d="M636.919 340.607 662.858 401.254 661.019 402.04 635.081 341.393ZM666.668 397.449 665.871 410.841 655.635 402.168Z" fill="#000000" fill-rule="nonzero" fill-opacity="1"/><path d="M636.016 410 655.887 410.309 655.856 412.309 635.984 412ZM653.965 405.278 665.871 411.464 653.779 417.277Z" fill="#000000" fill-rule="nonzero" fill-opacity="1"/><path d="M0.917516-0.397699 26.8112 59.3407 24.9762 60.1361-0.917516 0.397699ZM30.6034 55.5172 29.8707 68.9135 19.5932 60.2895Z" fill="#000000" fill-rule="nonzero" fill-opacity="1" transform="matrix(1 0 0 -1 636 479.914)"/><rect x="666.5" y="453.5" width="150" height="55" stroke="#000000" stroke-width="3" stroke-linecap="butt" stroke-linejoin="miter" stroke-miterlimit="8" stroke-opacity="1" fill="#FFFFFF" fill-opacity="1"/><text fill="#000000" fill-opacity="1" font-family="Arial,Arial_MSFontService,Arial" font-style="normal" font-variant="normal" font-weight="400" font-stretch="normal" font-size="18" text-anchor="start" direction="ltr" writing-mode="lr-tb" unicode-bidi="normal" text-decoration="none" transform="translate(712.504 477)">Arterial </text><text fill="#000000" fill-opacity="1" font-family="Arial,Arial_MSFontService,Arial" font-style="normal" font-variant="normal" font-weight="400" font-stretch="normal" font-size="18" text-anchor="start" direction="ltr" writing-mode="lr-tb" unicode-bidi="normal" text-decoration="none" transform="translate(701.004 499)">stiffness ↑</text><path d="M636.016 479 655.887 479.309 655.856 481.309 635.984 481ZM653.965 474.278 665.871 480.464 653.779 486.277Z" fill="#000000" fill-rule="nonzero" fill-opacity="1"/><rect x="833.5" y="382.5" width="124" height="55" stroke="#000000" stroke-width="3" stroke-linecap="butt" stroke-linejoin="miter" stroke-miterlimit="8" stroke-opacity="1" fill="#FFFFFF" fill-opacity="1"/><text fill="#000000" fill-opacity="1" font-family="Arial,Arial_MSFontService,Arial" font-style="normal" font-variant="normal" font-weight="400" font-stretch="normal" font-size="18" text-anchor="start" direction="ltr" writing-mode="lr-tb" unicode-bidi="normal" text-decoration="none" transform="translate(853.855 406)">Neutrophil </text><text fill="#000000" fill-opacity="1" font-family="Arial,Arial_MSFontService,Arial" font-style="normal" font-variant="normal" font-weight="400" font-stretch="normal" font-size="18" text-anchor="start" direction="ltr" writing-mode="lr-tb" unicode-bidi="normal" text-decoration="none" transform="translate(849.855 428)">activation ↑</text><path d="M0.060123-0.998191 7.10687-0.573751 6.98663 1.42263-0.060123 0.998191ZM5.41111-5.68495 17.0287 1.02567 4.68963 6.29334Z" fill="#000000" fill-rule="nonzero" fill-opacity="1" transform="matrix(1 0 0 -1 816 411.026)"/><rect x="974.5" y="382.5" width="124" height="55" stroke="#000000" stroke-width="3" stroke-linecap="butt" stroke-linejoin="miter" stroke-miterlimit="8" stroke-opacity="1" fill="#FFFFFF" fill-opacity="1"/><text fill="#000000" fill-opacity="1" font-family="Arial,Arial_MSFontService,Arial" font-style="normal" font-variant="normal" font-weight="400" font-stretch="normal" font-size="18" text-anchor="start" direction="ltr" writing-mode="lr-tb" unicode-bidi="normal" text-decoration="none" transform="translate(1000.71 406)">Capillary </text><text fill="#000000" fill-opacity="1" font-family="Arial,Arial_MSFontService,Arial" font-style="normal" font-variant="normal" font-weight="400" font-stretch="normal" font-size="18" text-anchor="start" direction="ltr" writing-mode="lr-tb" unicode-bidi="normal" text-decoration="none" transform="translate(1000.71 428)">stalling ↑</text><path d="M957 409 964.029 409 964.029 411 957 411ZM962.029 404 974.029 410 962.029 416Z" fill="#000000" fill-rule="nonzero" fill-opacity="1"/><path d="M0-1 134.089-1 134.089 6.7978 132.089 6.7978 132.089 0 133.089 1 0 1ZM139.089 4.7978 133.089 16.7978 127.089 4.7978Z" fill="#000000" fill-rule="nonzero" fill-opacity="1" transform="matrix(-1 1.22465e-16 1.22465e-16 1 225.089 378)"/><path d="M0.00655334-0.999978 146.466-0.0401573 146.453 1.9598-0.00655334 0.999978ZM144.499-5.05316 156.46 1.02535 144.42 6.94659Z" fill="#000000" fill-rule="nonzero" fill-opacity="1" transform="matrix(1 0 0 -1 161 411.025)"/><rect x="957.5" y="36.5" width="116" height="33" stroke="#000000" stroke-width="3" stroke-linecap="butt" stroke-linejoin="miter" stroke-miterlimit="8" stroke-opacity="1" fill="#FFFFFF" fill-opacity="1"/><text fill="#000000" fill-opacity="1" font-family="Arial,Arial_MSFontService,Arial" font-style="normal" font-variant="normal" font-weight="400" font-stretch="normal" font-size="18" text-anchor="start" direction="ltr" writing-mode="lr-tb" unicode-bidi="normal" text-decoration="none" transform="translate(975.385 60)">Hypoxia ↑</text><path d="M0.495149-0.868808 160.311 90.2131 159.321 91.9508-0.495149 0.868808ZM161.05 84.8789 168.504 96.0335 155.108 95.3046Z" fill="#000000" fill-rule="nonzero" fill-opacity="1" transform="matrix(1 0 0 -1 380 253.034)"/><path d="M240.878 206 207 206 207 204 240.878 204ZM238.878 199 250.878 205 238.878 211Z" fill="#000000" fill-rule="nonzero" fill-opacity="1"/><path d="M240.878 143 207 143 207 141 240.878 141ZM238.878 136 250.878 142 238.878 148Z" fill="#000000" fill-rule="nonzero" fill-opacity="1"/><path d="M0 0-15.0554 0-15.0554 448.113 226.533 448.113 226.533 448.163" stroke="#000000" stroke-width="2" stroke-linecap="butt" stroke-linejoin="miter" stroke-miterlimit="8" stroke-opacity="1" fill="none" fill-rule="evenodd" transform="matrix(-6.12323e-17 -1 -1 6.12323e-17 741.163 507.533)"/><rect x="923.5" y="150.5" width="194" height="55" stroke="#000000" stroke-width="3" stroke-linecap="butt" stroke-linejoin="miter" stroke-miterlimit="8" stroke-opacity="1" fill="#FFFFFF" fill-opacity="1"/><text fill="#000000" fill-opacity="1" font-family="Arial,Arial_MSFontService,Arial" font-style="normal" font-variant="normal" font-weight="400" font-stretch="normal" font-size="18" text-anchor="start" direction="ltr" writing-mode="lr-tb" unicode-bidi="normal" text-decoration="none" transform="translate(959.042 174)">Toxic substrate </text><text fill="#000000" fill-opacity="1" font-family="Arial,Arial_MSFontService,Arial" font-style="normal" font-variant="normal" font-weight="400" font-stretch="normal" font-size="18" text-anchor="start" direction="ltr" writing-mode="lr-tb" unicode-bidi="normal" text-decoration="none" transform="translate(974.542 196)">infiltration ↑</text><rect x="922.5" y="100.5" width="194" height="34" stroke="#000000" stroke-width="3" stroke-linecap="butt" stroke-linejoin="miter" stroke-miterlimit="8" stroke-opacity="1" fill="#FFFFFF" fill-opacity="1"/><text fill="#000000" fill-opacity="1" font-family="Arial,Arial_MSFontService,Arial" font-style="normal" font-variant="normal" font-weight="400" font-stretch="normal" font-size="18" text-anchor="start" direction="ltr" writing-mode="lr-tb" unicode-bidi="normal" text-decoration="none" transform="translate(936.429 124)">Neuroinflammation ↑</text><rect x="926" y="0" width="137" height="27" fill="#FFFFFF" fill-opacity="1"/><text fill="#4EA72E" fill-opacity="1" font-family="Arial,Arial_MSFontService,Arial" font-style="normal" font-variant="normal" font-weight="400" font-stretch="normal" font-size="22" text-anchor="start" direction="ltr" writing-mode="lr-tb" unicode-bidi="normal" text-decoration="none" transform="translate(932.748 22)">Parenchyma</text><path d="M1-2.79358e-06 1.00013 46.3723-0.99987 46.3723-1 2.79358e-06ZM6.00012 44.3723 0.00015748 56.3723-5.99988 44.3723Z" fill="#000000" fill-rule="nonzero" fill-opacity="1" transform="matrix(1 0 0 -1 1020 261.372)"/><path d="M1019.12 149.904 1018.7 144.045 1020.7 143.905 1021.11 149.764ZM1013.86 146.391 1019 134 1025.83 145.55Z" fill="#000000" fill-rule="nonzero" fill-opacity="1"/><path d="M710.807 278.282 686.426 239.023 688.125 237.968 712.506 277.227ZM683.234 243.36 682 230 693.428 237.029Z" fill="#000000" fill-rule="nonzero" fill-opacity="1"/><path d="M1-8.12519e-06 1.00008 9.38172-0.999924 9.38174-1 8.12519e-06ZM6.00006 7.38168 0.00015748 19.3817-5.99994 7.38178Z" fill="#000000" fill-rule="nonzero" fill-opacity="1" transform="matrix(1 0 0 -1 899 313.382)"/><path d="M1097.75 409.577 1119.13 409.577 1119.13 243.55 913 243.55 913 143" stroke="#000000" stroke-width="2" stroke-linecap="butt" stroke-linejoin="miter" stroke-miterlimit="8" stroke-opacity="1" fill="none" fill-rule="evenodd"/><path d="M912 147.237 912 52 946.697 52 946.697 54 913 54 914 53 914 147.237ZM944.697 47 956.697 53 944.697 59Z" fill="#000000" fill-rule="nonzero" fill-opacity="1"/><path d="M871.013 61.0001 903.802 61.4305 903.776 63.4304 870.987 62.9999ZM901.868 56.4047 913.789 62.5617 901.711 68.4037Z" fill="#000000" fill-rule="nonzero" fill-opacity="1"/><path d="M0 0 23.242 0 23.242 45.2225 155.485 45.2225" stroke="#000000" stroke-width="2" stroke-linecap="butt" stroke-linejoin="miter" stroke-miterlimit="8" stroke-opacity="1" fill="none" fill-rule="evenodd" transform="matrix(1 0 0 -1 859 132.223)"/><path d="M1-9.11104e-06 1.00007 7.28456-0.999934 7.28458-1 9.11104e-06ZM6.00005 5.28451 0.00015748 17.2846-5.99995 5.28462Z" fill="#000000" fill-rule="nonzero" fill-opacity="1" transform="matrix(1 0 0 -1 1015 86.2846)"/><path d="M0 0 23.2228 0 23.2228 70.2855" stroke="#000000" stroke-width="2" stroke-linecap="butt" stroke-linejoin="miter" stroke-miterlimit="8" stroke-opacity="1" fill="none" fill-rule="evenodd" transform="matrix(1 0 0 -1 859 201.286)"/><path d="M298.944 222 298.944 235.799 227 235.799" stroke="#000000" stroke-width="2" stroke-linecap="butt" stroke-linejoin="miter" stroke-miterlimit="8" stroke-opacity="1" fill="none" fill-rule="evenodd"/><rect x="315" y="1" width="183" height="26" fill="#FFFFFF" fill-opacity="1"/><text fill="#E97132" fill-opacity="1" font-family="Arial,Arial_MSFontService,Arial" font-style="normal" font-variant="normal" font-weight="400" font-stretch="normal" font-size="22" text-anchor="start" direction="ltr" writing-mode="lr-tb" unicode-bidi="normal" text-decoration="none" transform="translate(325.588 23)">Vascular system</text><path d="M0 0 87.2023 0 87.2023 29.6474 87.2869 29.6474" stroke="#000000" stroke-width="2" stroke-linecap="butt" stroke-linejoin="miter" stroke-miterlimit="8" stroke-opacity="1" fill="none" fill-rule="evenodd" transform="matrix(-1 1.22465e-16 1.22465e-16 1 380.287 254)"/><path d="M1-8.12519e-06 1.00008 9.38172-0.999924 9.38174-1 8.12519e-06ZM6.00006 7.38168 0.00015748 19.3817-5.99994 7.38178Z" fill="#000000" fill-rule="nonzero" fill-opacity="1" transform="matrix(1 0 0 -1 1020 312.382)"/></g></g></svg>