<svg width="1012" height="136" xmlns="http://www.w3.org/2000/svg" xmlns:xlink="http://www.w3.org/1999/xlink" xml:space="preserve" overflow="hidden"><g transform="translate(2 -174)"><g><rect x="0.5" y="219.5" width="95" height="45" stroke="#000000" stroke-width="3" stroke-linecap="butt" stroke-linejoin="miter" stroke-miterlimit="8" stroke-opacity="1" fill="#FFFFFF" fill-opacity="1"/><text fill="#000000" fill-opacity="1" font-family="Arial,Arial_MSFontService,Arial" font-style="normal" font-variant="normal" font-weight="400" font-stretch="normal" font-size="18" text-anchor="start" direction="ltr" writing-mode="lr-tb" unicode-bidi="normal" text-decoration="none" transform="translate(17.6033 249)">APOE4</text><rect x="132.5" y="179.5" width="271" height="33" stroke="#C00000" stroke-width="3" stroke-linecap="butt" stroke-linejoin="miter" stroke-miterlimit="8" stroke-opacity="1" fill="#FFFFFF" fill-opacity="1"/><text fill="#000000" fill-opacity="1" font-family="Arial,Arial_MSFontService,Arial" font-style="normal" font-variant="normal" font-weight="400" font-stretch="normal" font-size="18" text-anchor="start" direction="ltr" writing-mode="lr-tb" unicode-bidi="normal" text-decoration="none" transform="translate(159.538 203)">Microvascular dysfunctions</text><rect x="140.5" y="225.5" width="271" height="33" stroke="#156082" stroke-width="3" stroke-linecap="butt" stroke-linejoin="miter" stroke-miterlimit="8" stroke-opacity="1" fill="#FFFFFF" fill-opacity="1"/><text fill="#000000" fill-opacity="1" font-family="Arial,Arial_MSFontService,Arial" font-style="normal" font-variant="normal" font-weight="400" font-stretch="normal" font-size="18" text-anchor="start" direction="ltr" writing-mode="lr-tb" unicode-bidi="normal" text-decoration="none" transform="translate(157.516 249)">Impaired amyloid</text><text fill="#000000" fill-opacity="1" font-family="Arial,Arial_MSFontService,Arial" font-style="normal" font-variant="normal" font-weight="400" font-stretch="normal" font-size="18" text-anchor="start" direction="ltr" writing-mode="lr-tb" unicode-bidi="normal" text-decoration="none" transform="translate(294.516 249)">-</text><text fill="#000000" fill-opacity="1" font-family="Arial,Arial_MSFontService,Arial" font-style="normal" font-variant="normal" font-weight="400" font-stretch="normal" font-size="18" text-anchor="start" direction="ltr" writing-mode="lr-tb" unicode-bidi="normal" text-decoration="none" transform="translate(300.516 249)">β clearance</text><rect x="144.5" y="271.5" width="272" height="33" stroke="#A02B93" stroke-width="3" stroke-linecap="butt" stroke-linejoin="miter" stroke-miterlimit="8" stroke-opacity="1" fill="#FFFFFF" fill-opacity="1"/><text fill="#000000" fill-opacity="1" font-family="Arial,Arial_MSFontService,Arial" font-style="normal" font-variant="normal" font-weight="400" font-stretch="normal" font-size="18" text-anchor="start" direction="ltr" writing-mode="lr-tb" unicode-bidi="normal" text-decoration="none" transform="translate(159.193 295)">Increased tau phosphorylation</text><rect x="823.5" y="189.5" width="185" height="104" stroke="#000000" stroke-width="3" stroke-linecap="butt" stroke-linejoin="miter" stroke-miterlimit="8" stroke-opacity="1" fill="#FFFFFF" fill-opacity="1"/><text fill="#000000" fill-opacity="1" font-family="Arial,Arial_MSFontService,Arial" font-style="normal" font-variant="normal" font-weight="400" font-stretch="normal" font-size="18" text-anchor="start" direction="ltr" writing-mode="lr-tb" unicode-bidi="normal" text-decoration="none" transform="translate(838.394 227)">Neurodegeneration </text><text fill="#000000" fill-opacity="1" font-family="Arial,Arial_MSFontService,Arial" font-style="normal" font-variant="normal" font-weight="400" font-stretch="normal" font-size="18" text-anchor="start" direction="ltr" writing-mode="lr-tb" unicode-bidi="normal" text-decoration="none" transform="translate(862.394 249)">and cognitive </text><text fill="#000000" fill-opacity="1" font-family="Arial,Arial_MSFontService,Arial" font-style="normal" font-variant="normal" font-weight="400" font-stretch="normal" font-size="18" text-anchor="start" direction="ltr" writing-mode="lr-tb" unicode-bidi="normal" text-decoration="none" transform="translate(870.894 269)">impairment</text><path d="M95.5 241 130.117 241 130.117 244 95.5 244ZM128.117 236.5 140.117 242.5 128.117 248.5Z" fill="#000000" fill-rule="nonzero" fill-opacity="1"/><path d="M0.224283-1.48314 3.82768-0.938224 7.45886 0.663954 10.7858 3.10316 13.7277 6.22547 16.1978 9.89575 18.0998 13.987 19.3275 18.375 19.7503 22.7841 20.1603 27.0606 20.1117 26.7997 21.2706 30.9418 21.1863 30.7136 22.987 34.5871 22.8712 34.3819 25.2069 37.8524 24.8806 37.5037 28.4524 40.2684 26.6161 42.6408 22.853 39.728 20.3164 35.9589 18.4144 31.8676 17.1868 27.4796 16.764 23.0705 16.3539 18.794 16.4025 19.055 15.2436 14.9128 15.3279 15.141 13.5272 11.2676 13.643 11.4727 11.3073 8.00229 11.46 8.19342 8.69649 5.26034 8.90133 5.44141 5.81688 3.18003 6.09826 3.34267 2.79986 1.88732 3.1811 1.99811-0.224283 1.48314ZM28.3782 35.1866 36.5142 45.8546 23.0982 45.9626Z" fill="#000000" fill-rule="nonzero" fill-opacity="1" transform="matrix(1 0 0 -1 95.5 242.355)"/><path d="M95.6691 241.01 100.363 241.542 105.037 243.09 109.381 245.479 113.262 248.57 116.548 252.232 119.096 256.345 120.754 260.789 121.322 265.237 121.869 269.514 121.786 269.18 123.331 273.322 123.2 273.056 125.601 276.93 125.442 276.718 128.555 280.189 128.373 280.017 132.056 282.95 131.689 282.734 135.142 284.143 134.009 286.921 130.356 285.431 126.406 282.285 123.12 278.623 120.572 274.51 118.915 270.066 118.346 265.618 117.8 261.341 117.882 261.675 116.338 257.533 116.468 257.799 114.068 253.925 114.226 254.137 111.113 250.666 111.295 250.838 107.612 247.905 107.823 248.046 103.712 245.785 103.964 245.894 99.5675 244.439 99.8698 244.505 95.3309 243.99ZM134.35 279.211 144.168 288.355 130.963 290.723Z" fill="#000000" fill-rule="nonzero" fill-opacity="1"/><path d="M791.5 195 811.889 195 811.889 198 791.5 198ZM809.889 190.5 821.889 196.5 809.889 202.5Z" fill="#C00000" fill-rule="nonzero" fill-opacity="1"/><path d="M791.5 241 811.889 241 811.889 244 791.5 244ZM809.889 236.5 821.889 242.5 809.889 248.5Z" fill="#156082" fill-rule="nonzero" fill-opacity="1"/><path d="M791.5 286 811.889 286 811.889 289 791.5 289ZM809.889 281.5 821.889 287.5 809.889 293.5Z" fill="#A02B93" fill-rule="nonzero" fill-opacity="1"/><text fill="#000000" fill-opacity="1" font-family="Arial,Arial_MSFontService,Arial" font-style="normal" font-variant="normal" font-weight="400" font-stretch="normal" font-size="18" text-anchor="start" direction="ltr" writing-mode="lr-tb" unicode-bidi="normal" text-decoration="none" transform="translate(101.326 211)">a</text><text fill="#000000" fill-opacity="1" font-family="Arial,Arial_MSFontService,Arial" font-style="normal" font-variant="normal" font-weight="400" font-stretch="normal" font-size="18" text-anchor="start" direction="ltr" writing-mode="lr-tb" unicode-bidi="normal" text-decoration="none" transform="translate(120.121 235)">b</text><text fill="#000000" fill-opacity="1" font-family="Arial,Arial_MSFontService,Arial" font-style="normal" font-variant="normal" font-weight="400" font-stretch="normal" font-size="18" text-anchor="start" direction="ltr" writing-mode="lr-tb" unicode-bidi="normal" text-decoration="none" transform="translate(107.688 281)">c</text><rect x="485.5" y="181.5" width="225" height="30" stroke="#C00000" stroke-width="3" stroke-linecap="butt" stroke-linejoin="miter" stroke-miterlimit="8" stroke-opacity="1" fill="#FFFFFF" fill-opacity="1"/><text fill="#000000" fill-opacity="1" font-family="Arial,Arial_MSFontService,Arial" font-style="normal" font-variant="normal" font-weight="400" font-stretch="normal" font-size="18" text-anchor="start" direction="ltr" writing-mode="lr-tb" unicode-bidi="normal" text-decoration="none" transform="translate(503.944 203)">Impaired CBF and BBB</text><rect x="485.5" y="226.5" width="225" height="31" stroke="#156082" stroke-width="3" stroke-linecap="butt" stroke-linejoin="miter" stroke-miterlimit="8" stroke-opacity="1" fill="#FFFFFF" fill-opacity="1"/><text fill="#000000" fill-opacity="1" font-family="Arial,Arial_MSFontService,Arial" font-style="normal" font-variant="normal" font-weight="400" font-stretch="normal" font-size="18" text-anchor="start" direction="ltr" writing-mode="lr-tb" unicode-bidi="normal" text-decoration="none" transform="translate(523.319 249)">Amyloid</text><text fill="#000000" fill-opacity="1" font-family="Arial,Arial_MSFontService,Arial" font-style="normal" font-variant="normal" font-weight="400" font-stretch="normal" font-size="18" text-anchor="start" direction="ltr" writing-mode="lr-tb" unicode-bidi="normal" text-decoration="none" transform="translate(587.319 249)">-</text><text fill="#000000" fill-opacity="1" font-family="Arial,Arial_MSFontService,Arial" font-style="normal" font-variant="normal" font-weight="400" font-stretch="normal" font-size="18" text-anchor="start" direction="ltr" writing-mode="lr-tb" unicode-bidi="normal" text-decoration="none" transform="translate(593.319 249)">β plaques</text><rect x="485.5" y="272.5" width="225" height="31" stroke="#A02B93" stroke-width="3" stroke-linecap="butt" stroke-linejoin="miter" stroke-miterlimit="8" stroke-opacity="1" fill="#FFFFFF" fill-opacity="1"/><text fill="#000000" fill-opacity="1" font-family="Arial,Arial_MSFontService,Arial" font-style="normal" font-variant="normal" font-weight="400" font-stretch="normal" font-size="18" text-anchor="start" direction="ltr" writing-mode="lr-tb" unicode-bidi="normal" text-decoration="none" transform="translate(510.444 295)">Neurofibrillary tangles</text><path d="M403.5 195 421.344 195 421.344 198 403.5 198ZM419.344 190.5 431.344 196.5 419.344 202.5Z" fill="#C00000" fill-rule="nonzero" fill-opacity="1"/><path d="M411.5 241 429.344 241 429.344 244 411.5 244ZM427.344 236.5 439.344 242.5 427.344 248.5Z" fill="#156082" fill-rule="nonzero" fill-opacity="1"/><path d="M416.5 286 434.344 286 434.344 289 416.5 289ZM432.344 281.5 444.344 287.5 432.344 293.5Z" fill="#A02B93" fill-rule="nonzero" fill-opacity="1"/><path d="M0.165964-1.49079 4.94373-0.958899 9.699 0.585716 14.1199 2.97182 18.0724 6.06009 21.4197 9.7216 24.0174 13.8351 25.7077 18.2826 26.3117 22.9196 25.7578 27.5445 24.2096 31.9757 21.8237 36.0851 18.7423 39.7515 15.012 42.9218 12.0651 44.1209 10.9344 41.3422 13.6585 40.2337 13.2524 40.4801 16.7036 37.547 16.5267 37.7249 19.4435 34.2544 19.2946 34.4664 21.5434 30.5929 21.4246 30.8513 22.8718 26.7091 22.7985 27.0255 23.3106 22.7491 23.3126 23.1211 22.7555 18.8447 22.8408 19.1838 21.2666 15.0416 21.4005 15.3097 18.9544 11.4362 19.1156 11.6474 15.9429 8.17691 16.1265 8.3468 12.3726 5.4137 12.5836 5.55172 8.39379 3.29033 8.64284 3.39695 4.16238 1.9416 4.45981 2.00576-0.165964 1.49079ZM15.2737 47.8068 2 45.8548 11.5258 36.4071Z" fill="#C00000" fill-rule="nonzero" fill-opacity="1" transform="matrix(-1 1.22465e-16 1.22465e-16 1 487.5 196.5)"/><path d="M0.0973594-1.49684 4.23491-1.22772 8.42395-0.427235 12.5319 0.859358 16.5278 2.5942 20.3814 4.74067 24.0897 7.28143 30.7952 13.297 36.459 20.4103 38.8467 24.3366 40.8626 28.4142 42.4901 32.6376 43.6957 36.9747 44.4449 41.3924 44.7024 45.8528 44.457 50.3095 43.7436 54.7205 42.5952 59.0522 41.0334 63.3018 36.866 71.2466 31.4439 78.3868 25.0443 84.4066 21.5015 86.9518 17.7675 89.1326 12.309 91.1148 11.285 88.2949 16.6161 86.359 16.3716 86.4737 19.9273 84.397 19.8086 84.4741 23.2135 82.028 23.0609 82.1536 29.2973 76.2874 29.1304 76.4728 34.4011 69.5319 34.2674 69.7423 38.3311 61.9953 38.2515 62.1747 39.7552 58.0829 39.7133 58.216 40.8247 54.0234 40.7939 54.1683 41.4829 49.9086 41.4659 50.0656 41.7023 45.7723 41.7025 45.9413 41.4547 41.648 41.4733 41.8123 40.7508 37.5526 40.7845 37.7035 39.6191 33.511 39.6646 33.6486 38.0879 29.5569 38.1429 29.6823 36.1864 25.7248 36.2495 25.8394 33.945 22.0499 34.0531 22.2049 28.5266 15.264 28.6984 15.4462 22.1593 9.57999 22.3131 9.70085 18.743 7.25474 18.8609 7.32776 15.1326 5.25108 15.2651 5.31656 11.4103 3.64291 11.5593 3.69843 7.6095 2.46138 7.77628 2.50328 3.76319 1.73642 3.94737 1.75992-0.0973594 1.49684ZM14.9592 95.1821 2 91.7096 12.5535 83.4257Z" fill="#C00000" fill-rule="nonzero" fill-opacity="1" transform="matrix(-1 1.22465e-16 1.22465e-16 1 487.5 196.5)"/><path d="M710.684 241.011 715.02 241.547 719.353 243.109 723.367 245.512 726.944 248.614 729.966 252.281 732.304 256.389 733.82 260.817 734.361 265.423 733.851 270.021 732.423 274.437 730.216 278.541 727.361 282.21 723.862 285.422 721.649 286.267 720.578 283.465 722.524 282.722 722.045 283.018 725.24 280.085 725.071 280.269 727.771 276.798 727.634 277.009 729.716 273.136 729.61 273.384 730.95 269.242 730.886 269.539 731.36 265.262 731.361 265.602 730.859 261.326 730.93 261.637 729.511 257.495 729.627 257.751 727.422 253.877 727.568 254.089 724.709 250.619 724.884 250.798 721.501 247.865 721.713 248.019 717.936 245.757 718.198 245.881 714.16 244.426 714.485 244.504 710.316 243.989ZM725.081 289.791 711.742 288.355 720.895 278.545Z" fill="#156082" fill-rule="nonzero" fill-opacity="1"/><path d="M0.0707535-1.49833 6.87993-1.17679 13.6995-0.2307 20.4051 1.294 26.9449 3.35538 33.2675 5.91211 39.3213 8.92347 45.055 12.3493 50.4169 16.1501 55.3549 20.287 59.8169 24.7217 63.7496 29.4167 67.0988 34.3351 69.8084 39.4401 71.8202 44.6944 73.0733 50.0581 73.5046 55.4827 73.0855 60.9043 71.8684 66.2631 69.9136 71.5142 67.28 76.6177 64.0241 81.5358 60.2001 86.2314 55.8608 90.6674 51.058 94.8059 45.8424 98.6087 40.2647 102.037 34.375 105.05 28.2233 107.609 21.8596 109.672 15.31 111.204 12.1221 111.553 11.7955 108.571 14.8934 108.231 14.715 108.262 21.1152 106.765 20.9942 106.799 27.2405 104.774 27.1271 104.816 33.1683 102.303 33.0612 102.352 38.8461 99.3925 38.7439 99.45 44.2212 96.0838 44.1229 96.1497 49.2413 92.4178 49.1458 92.4935 53.8541 88.4365 53.761 88.5239 58.0078 84.1824 57.917 84.2841 61.6511 79.6988 61.5635 79.818 64.7336 75.0294 64.6514 75.1696 67.2063 70.2186 67.1336 70.3831 69.022 65.3102 68.965 65.5012 70.1356 60.347 70.1029 60.5636 70.5045 55.3687 70.5047 55.6032 70.0916 50.4084 70.1262 50.6307 68.9221 45.4764 68.982 45.6716 67.0396 40.5986 67.1155 40.7655 64.4876 35.8144 64.5727 35.9555 61.3119 31.1669 61.4019 31.2859 57.561 26.7006 57.6535 26.8013 53.2854 22.4598 53.3795 22.5457 48.5367 18.4887 48.6325 18.5626 43.3679 14.8307 43.466 14.8946 37.8322 11.5284 37.9335 11.5838 31.9833 8.62398 32.089 8.67157 25.8752 6.15879 25.9866 6.1988 19.5618 4.17368 19.6801 4.20573 13.0971 2.7089 13.2236 2.732 6.53509 1.8041 6.67046 1.81666-0.0707535 1.49833ZM14.4947 115.856 2 110.969 13.4063 103.905Z" fill="#A02B93" fill-rule="nonzero" fill-opacity="1" transform="matrix(1 0 0 -1 710.5 297.469)"/><path d="M0.183887-1.48869 4.5196-0.953124 8.85274 0.60858 12.8665 3.01231 16.4441 6.11387 19.4656 9.78109 21.8038 13.8893 23.3202 18.3166 23.8609 22.9225 23.3511 27.5206 21.9225 31.9368 19.7164 36.041 16.8613 39.7102 13.3623 42.9221 11.1486 43.7674 10.0783 40.9648 12.0241 40.2218 11.5449 40.5181 14.7401 37.585 14.5707 37.7688 17.2712 34.2984 17.1338 34.5093 19.2159 30.6359 19.1099 30.8844 20.4499 26.7422 20.3862 27.0386 20.8603 22.7621 20.8614 23.1023 20.3594 18.8258 20.4301 19.137 19.0113 14.9948 19.1267 15.2507 16.9222 11.3772 17.0681 11.5891 14.2088 8.11864 14.3839 8.29819 11.0006 5.36509 11.2125 5.5186 7.4364 3.25721 7.69848 3.38147 3.66043 1.92612 3.98513 2.00366-0.183887 1.48869ZM14.581 47.2914 1.24173 45.8548 10.3946 36.0453Z" fill="#156082" fill-rule="nonzero" fill-opacity="1" transform="matrix(1 0 0 -1 710.5 242.355)"/><text fill="#C00000" fill-opacity="1" font-family="Arial,Arial_MSFontService,Arial" font-style="normal" font-variant="normal" font-weight="400" font-stretch="normal" font-size="18" text-anchor="start" direction="ltr" writing-mode="lr-tb" unicode-bidi="normal" text-decoration="none" transform="translate(470.576 229)">d</text><text fill="#C00000" fill-opacity="1" font-family="Arial,Arial_MSFontService,Arial" font-style="normal" font-variant="normal" font-weight="400" font-stretch="normal" font-size="18" text-anchor="start" direction="ltr" writing-mode="lr-tb" unicode-bidi="normal" text-decoration="none" transform="translate(466.818 277)">e</text><text fill="#156082" fill-opacity="1" font-family="Arial,Arial_MSFontService,Arial" font-style="normal" font-variant="normal" font-weight="400" font-stretch="normal" font-size="18" text-anchor="start" direction="ltr" writing-mode="lr-tb" unicode-bidi="normal" text-decoration="none" transform="translate(738.046 269)">g</text><text fill="#156082" fill-opacity="1" font-family="Arial,Arial_MSFontService,Arial" font-style="normal" font-variant="normal" font-weight="400" font-stretch="normal" font-size="18" text-anchor="start" direction="ltr" writing-mode="lr-tb" unicode-bidi="normal" text-decoration="none" transform="translate(738.624 225)">f</text><text fill="#A02B93" fill-opacity="1" font-family="Arial,Arial_MSFontService,Arial" font-style="normal" font-variant="normal" font-weight="400" font-stretch="normal" font-size="18" text-anchor="start" direction="ltr" writing-mode="lr-tb" unicode-bidi="normal" text-decoration="none" transform="translate(761.178 231)">h</text></g></g></svg>